<?xml version="1.0" standalone="no"?>
<svg viewBox="0 0 200 200" xmlns="http://www.w3.org/2000/svg">
  <path fill="#F1C21B" d="M43.2,-76.8C54.3,-68.4,60.6,-53.5,67.7,-39.6C74.8,-25.7,82.7,-12.9,85.5,1.6C88.3,16.1,86,32.2,78.4,45.2C70.8,58.2,57.9,68.1,44,76.2C30,84.3,15,90.5,0.9,88.9C-13.2,87.3,-26.3,77.8,-38.8,68.9C-51.2,60,-62.9,51.5,-70.6,40.1C-78.3,28.7,-82,14.4,-82.6,-0.4C-83.2,-15.1,-80.9,-30.2,-72.3,-40.1C-63.7,-50,-49,-54.7,-35.9,-62C-22.8,-69.3,-11.4,-79.2,2.3,-83.2C16,-87.2,32.1,-85.3,43.2,-76.8Z" transform="translate(100 100)" />
</svg>
